<svg xmlns="http://www.w3.org/2000/svg" viewBox="0 0 1920 917" preserveAspectRatio="xMidYMid" width="1920" height="917" xmlns:xlink="http://www.w3.org/1999/xlink" style="shape-rendering:auto;display:block;background-position-x:0%;background-position-y:0%;background-size:auto;background-origin:padding-box;background-clip:border-box;background:scroll rgb(12, 11, 11) none  repeat;width:1920px;height:917px;;animation:none"><g><defs><linearGradient gradientUnits="userSpaceOnUse" y2="0" y1="0" x2="1920" x1="935" id="ldbk-photon-p7qntxalbyj-lg"><stop offset="0" stop-color="#f4ff00"></stop>

    
<stop offset="1" stop-color="#ffbf34"></stop></linearGradient>

  
<mask id="ldbk-photon-p7qntxalbyj-mask"><g><path fill="#fff" d="M2220 -0.5 L953.6653438299289 -0.5 A15 15 0 0 1 953.6653438299289 30.5 L2220 30.5" transform="matrix(1,0,0,1,33.67823028564453,0)" style="fill:rgb(255, 255, 255);transform:matrix(1, 0, 0, 1, 33.6782, 0);;animation:none"></path>
<path fill="#000" d="M1975.5954658775997 -0.5 L2001.1909317551995 -0.5 A15 15 0 0 1 2001.1909317551995 30.5 L1975.5954658775997 30.5 A15 15 0 0 1 1975.5954658775997 -0.5" transform="matrix(1,0,0,1,0,0)" opacity="1" style="fill:rgb(0, 0, 0);transform:matrix(1, 0, 0, 1, 0, 0);;animation:none"></path>
<path fill="#fff" d="M2220 29.5 L913.203251078314 29.5 A15 15 0 0 0 913.203251078314 60.5 L2220 60.5" transform="matrix(1,0,0,1,-22.810096740722656,0)" style="fill:rgb(255, 255, 255);transform:matrix(1, 0, 0, 1, -22.8101, 0);;animation:none"></path>
<path fill="#fff" d="M978.0165677175021 29.5 L1009.873625856169 29.5 A15 15 0 0 1 1009.873625856169 60.5 L978.0165677175021 60.5 A15 15 0 0 1 978.0165677175021 29.5" transform="matrix(1,0,0,1,0,0)" opacity="1" style="fill:rgb(255, 255, 255);transform:matrix(1, 0, 0, 1, 0, 0);;animation:none"></path>
<path fill="#fff" d="M2220 59.5 L939.4625985319637 59.5 A15 15 0 0 1 939.4625985319637 90.5 L2220 90.5" transform="matrix(1,0,0,1,20.93769073486328,0)" style="fill:rgb(255, 255, 255);transform:matrix(1, 0, 0, 1, 20.9377, 0);;animation:none"></path>
<path fill="#000" d="M1962.5135043578264 59.5 L1975.0270087156528 59.5 A15 15 0 0 1 1975.0270087156528 90.5 L1962.5135043578264 90.5 A15 15 0 0 1 1962.5135043578264 59.5" transform="matrix(1,0,0,1,-927.8406982421875,0)" opacity="0.599079" style="fill:rgb(0, 0, 0);transform:matrix(1, 0, 0, 1, -927.841, 0);opacity:0.599079;;animation:none"></path>
<path fill="#fff" d="M2220 89.5 L903.2478992129828 89.5 A15 15 0 0 0 903.2478992129828 120.5 L2220 120.5" transform="matrix(1,0,0,1,-33.60154724121094,0)" style="fill:rgb(255, 255, 255);transform:matrix(1, 0, 0, 1, -33.6015, 0);;animation:none"></path>
<path fill="#fff" d="M978.9420068281867 89.5 L989.4927643498974 89.5 A15 15 0 0 1 989.4927643498974 120.5 L978.9420068281867 120.5 A15 15 0 0 1 978.9420068281867 89.5" transform="matrix(1,0,0,1,0,0)" opacity="1" style="fill:rgb(255, 255, 255);transform:matrix(1, 0, 0, 1, 0, 0);;animation:none"></path>
<path fill="#fff" d="M2220 119.5 L949.1315645643041 119.5 A15 15 0 0 1 949.1315645643041 150.5 L2220 150.5" transform="matrix(1,0,0,1,3.0757827758789062,0)" style="fill:rgb(255, 255, 255);transform:matrix(1, 0, 0, 1, 3.07578, 0);;animation:none"></path>
<path fill="#000" d="M1989.085595542911 119.5 L2028.171191085822 119.5 A15 15 0 0 1 2028.171191085822 150.5 L1989.085595542911 150.5 A15 15 0 0 1 1989.085595542911 119.5" transform="matrix(1,0,0,1,-1735.8656005859375,0)" opacity="0.322581" style="fill:rgb(0, 0, 0);transform:matrix(1, 0, 0, 1, -1735.87, 0);opacity:0.322581;;animation:none"></path>
<path fill="#fff" d="M2220 149.5 L919.0296303997299 149.5 A15 15 0 0 0 919.0296303997299 180.5 L2220 180.5" transform="matrix(1,0,0,1,-0.41036033630371094,0)" style="fill:rgb(255, 255, 255);transform:matrix(1, 0, 0, 1, -0.41036, 0);;animation:none"></path>
<path fill="#fff" d="M970.8169002011938 149.5 L990.4546749052847 149.5 A15 15 0 0 1 990.4546749052847 180.5 L970.8169002011938 180.5 A15 15 0 0 1 970.8169002011938 149.5" transform="matrix(1,0,0,1,0,0)" opacity="0.78341" style="fill:rgb(255, 255, 255);transform:matrix(1, 0, 0, 1, 0, 0);opacity:0.78341;;animation:none"></path>
<path fill="#fff" d="M2220 179.5 L927.6581513621475 179.5 A15 15 0 0 1 927.6581513621475 210.5 L2220 210.5" transform="matrix(1,0,0,1,29.518800735473633,0)" style="fill:rgb(255, 255, 255);transform:matrix(1, 0, 0, 1, 29.5188, 0);;animation:none"></path>
<path fill="#000" d="M1973.0797291166234 179.5 L1996.1594582332468 179.5 A15 15 0 0 1 1996.1594582332468 210.5 L1973.0797291166234 210.5 A15 15 0 0 1 1973.0797291166234 179.5" transform="matrix(1,0,0,1,-232.90309143066406,0)" opacity="1" style="fill:rgb(0, 0, 0);transform:matrix(1, 0, 0, 1, -232.903, 0);;animation:none"></path>
<path fill="#fff" d="M2220 209.5 L914.8626570307704 209.5 A15 15 0 0 0 914.8626570307704 240.5 L2220 240.5" transform="matrix(1,0,0,1,-8.687772750854492,0)" style="fill:rgb(255, 255, 255);transform:matrix(1, 0, 0, 1, -8.68777, 0);;animation:none"></path>
<path fill="#fff" d="M966.3407798177602 209.5 L988.7610879480656 209.5 A15 15 0 0 1 988.7610879480656 240.5 L966.3407798177602 240.5 A15 15 0 0 1 966.3407798177602 209.5" transform="matrix(1,0,0,1,0,0)" opacity="0.921659" style="fill:rgb(255, 255, 255);transform:matrix(1, 0, 0, 1, 0, 0);opacity:0.921659;;animation:none"></path>
<path fill="#fff" d="M2220 239.5 L934.8386976822974 239.5 A15 15 0 0 1 934.8386976822974 270.5 L2220 270.5" transform="matrix(1,0,0,1,5.884452819824219,0)" style="fill:rgb(255, 255, 255);transform:matrix(1, 0, 0, 1, 5.88445, 0);;animation:none"></path>
<path fill="#000" d="M1965.4923639768017 239.5 L1980.9847279536034 239.5 A15 15 0 0 1 1980.9847279536034 270.5 L1965.4923639768017 270.5 A15 15 0 0 1 1965.4923639768017 239.5" transform="matrix(1,0,0,1,-814.0933227539062,0)" opacity="0.645161" style="fill:rgb(0, 0, 0);transform:matrix(1, 0, 0, 1, -814.093, 0);opacity:0.645161;;animation:none"></path>
<path fill="#fff" d="M2220 269.5 L898.8081647944776 269.5 A15 15 0 0 0 898.8081647944776 300.5 L2220 300.5" transform="matrix(1,0,0,1,-39.5420036315918,0)" style="fill:rgb(255, 255, 255);transform:matrix(1, 0, 0, 1, -39.542, 0);;animation:none"></path>
<path fill="#fff" d="M971.3594078355349 269.5 L1007.9788331628467 269.5 A15 15 0 0 1 1007.9788331628467 300.5 L971.3594078355349 300.5 A15 15 0 0 1 971.3594078355349 269.5" transform="matrix(1,0,0,1,0,0)" opacity="0.368664" style="fill:rgb(255, 255, 255);transform:matrix(1, 0, 0, 1, 0, 0);opacity:0.368664;;animation:none"></path>
<path fill="#fff" d="M2220 299.5 L929.1287792230984 299.5 A15 15 0 0 1 929.1287792230984 330.5 L2220 330.5" transform="matrix(1,0,0,1,32.99828338623047,0)" style="fill:rgb(255, 255, 255);transform:matrix(1, 0, 0, 1, 32.9983, 0);;animation:none"></path>
<path fill="#000" d="M1965.9187379675263 299.5 L1981.8374759350527 299.5 A15 15 0 0 1 1981.8374759350527 330.5 L1965.9187379675263 330.5 A15 15 0 0 1 1965.9187379675263 299.5" transform="matrix(1,0,0,1,-1521.369873046875,0)" opacity="0.138249" style="fill:rgb(0, 0, 0);transform:matrix(1, 0, 0, 1, -1521.37, 0);opacity:0.138249;;animation:none"></path>
<path fill="#fff" d="M2220 329.5 L880.7481163172245 329.5 A15 15 0 0 0 880.7481163172245 360.5 L2220 360.5" transform="matrix(1,0,0,1,-39.04827117919922,0)" style="fill:rgb(255, 255, 255);transform:matrix(1, 0, 0, 1, -39.0483, 0);;animation:none"></path>
<path fill="#fff" d="M995.4476687815466 329.5 L1022.2309281692792 329.5 A15 15 0 0 1 1022.2309281692792 360.5 L995.4476687815466 360.5 A15 15 0 0 1 995.4476687815466 329.5" transform="matrix(1,0,0,1,0,0)" opacity="1" style="fill:rgb(255, 255, 255);transform:matrix(1, 0, 0, 1, 0, 0);;animation:none"></path>
<path fill="#fff" d="M2220 359.5 L925.6004976065467 359.5 A15 15 0 0 1 925.6004976065467 390.5 L2220 390.5" transform="matrix(1,0,0,1,0.054584503173828125,0)" style="fill:rgb(255, 255, 255);transform:matrix(1, 0, 0, 1, 0.0545845, 0);;animation:none"></path>
<path fill="#000" d="M1987.729840229152 359.5 L2025.4596804583039 359.5 A15 15 0 0 1 2025.4596804583039 390.5 L1987.729840229152 390.5 A15 15 0 0 1 1987.729840229152 359.5" transform="matrix(1,0,0,1,-1053.85986328125,0)" opacity="0.737327" style="fill:rgb(0, 0, 0);transform:matrix(1, 0, 0, 1, -1053.86, 0);opacity:0.737327;;animation:none"></path>
<path fill="#fff" d="M2220 389.5 L900.9909684132422 389.5 A15 15 0 0 0 900.9909684132422 420.5 L2220 420.5" transform="matrix(1,0,0,1,-20.516342163085938,0)" style="fill:rgb(255, 255, 255);transform:matrix(1, 0, 0, 1, -20.5163, 0);;animation:none"></path>
<path fill="#fff" d="M972.0077264084816 389.5 L1004.7386096271163 389.5 A15 15 0 0 1 1004.7386096271163 420.5 L972.0077264084816 420.5 A15 15 0 0 1 972.0077264084816 389.5" transform="matrix(1,0,0,1,0,0)" opacity="0.32258" style="fill:rgb(255, 255, 255);transform:matrix(1, 0, 0, 1, 0, 0);opacity:0.32258;;animation:none"></path>
<path fill="#fff" d="M2220 419.5 L938.2295695734834 419.5 A15 15 0 0 1 938.2295695734834 450.5 L2220 450.5" transform="matrix(1,0,0,1,4.792890548706055,0)" style="fill:rgb(255, 255, 255);transform:matrix(1, 0, 0, 1, 4.79289, 0);;animation:none"></path>
<path fill="#000" d="M1969.6955031656914 419.5 L1989.3910063313829 419.5 A15 15 0 0 1 1989.3910063313829 450.5 L1969.6955031656914 450.5 A15 15 0 0 1 1969.6955031656914 419.5" transform="matrix(1,0,0,1,-684.4741821289062,0)" opacity="0.921659" style="fill:rgb(0, 0, 0);transform:matrix(1, 0, 0, 1, -684.474, 0);opacity:0.921659;;animation:none"></path>
<path fill="#fff" d="M2220 449.5 L922.842458833212 449.5 A15 15 0 0 0 922.842458833212 480.5 L2220 480.5" transform="matrix(1,0,0,1,-43.934898376464844,0)" style="fill:rgb(255, 255, 255);transform:matrix(1, 0, 0, 1, -43.9349, 0);;animation:none"></path>
<path fill="#fff" d="M1015.2861764780667 449.5 L1028.2088873485673 449.5 A15 15 0 0 1 1028.2088873485673 480.5 L1015.2861764780667 480.5 A15 15 0 0 1 1015.2861764780667 449.5" transform="matrix(1,0,0,1,0,0)" opacity="0.921658" style="fill:rgb(255, 255, 255);transform:matrix(1, 0, 0, 1, 0, 0);opacity:0.921658;;animation:none"></path>
<path fill="#fff" d="M2220 479.5 L973.763050044682 479.5 A15 15 0 0 1 973.763050044682 510.5 L2220 510.5" transform="matrix(1,0,0,1,0.6280045509338379,0)" style="fill:rgb(255, 255, 255);transform:matrix(1, 0, 0, 1, 0.628005, 0);;animation:none"></path>
<path fill="#000" d="M1978.8623495669697 479.5 L2007.7246991339393 479.5 A15 15 0 0 1 2007.7246991339393 510.5 L1978.8623495669697 510.5 A15 15 0 0 1 1978.8623495669697 479.5" transform="matrix(1,0,0,1,-941.0505981445312,0)" opacity="0.645161" style="fill:rgb(0, 0, 0);transform:matrix(1, 0, 0, 1, -941.051, 0);opacity:0.645161;;animation:none"></path>
<path fill="#fff" d="M2220 509.5 L951.2894629463767 509.5 A15 15 0 0 0 951.2894629463767 540.5 L2220 540.5" transform="matrix(1,0,0,1,-5.900670528411865,0)" style="fill:rgb(255, 255, 255);transform:matrix(1, 0, 0, 1, -5.90067, 0);;animation:none"></path>
<path fill="#fff" d="M1008.873635579263 509.5 L1022.3820752431511 509.5 A15 15 0 0 1 1022.3820752431511 540.5 L1008.873635579263 540.5 A15 15 0 0 1 1008.873635579263 509.5" transform="matrix(1,0,0,1,0,0)" opacity="0.0921655" style="fill:rgb(255, 255, 255);transform:matrix(1, 0, 0, 1, 0, 0);opacity:0.0921655;;animation:none"></path>
<path fill="#fff" d="M2220 539.5 L979.8847098725532 539.5 A15 15 0 0 1 979.8847098725532 570.5 L2220 570.5" transform="matrix(1,0,0,1,0.0472259521484375,0)" style="fill:rgb(255, 255, 255);transform:matrix(1, 0, 0, 1, 0.047226, 0);;animation:none"></path>
<path fill="#000" d="M1972.691597746427 539.5 L1995.3831954928542 539.5 A15 15 0 0 1 1995.3831954928542 570.5 L1972.691597746427 570.5 A15 15 0 0 1 1972.691597746427 539.5" transform="matrix(1,0,0,1,-508.6079406738281,0)" opacity="1" style="fill:rgb(0, 0, 0);transform:matrix(1, 0, 0, 1, -508.608, 0);;animation:none"></path>
<path fill="#fff" d="M2220 569.5 L924.9409790142416 569.5 A15 15 0 0 0 924.9409790142416 600.5 L2220 600.5" transform="matrix(1,0,0,1,-31.510366439819336,0)" style="fill:rgb(255, 255, 255);transform:matrix(1, 0, 0, 1, -31.5104, 0);;animation:none"></path>
<path fill="#fff" d="M1026.7965913529424 569.5 L1039.5207904654499 569.5 A15 15 0 0 1 1039.5207904654499 600.5 L1026.7965913529424 600.5 A15 15 0 0 1 1026.7965913529424 569.5" transform="matrix(1,0,0,1,0,0)" opacity="0.691244" style="fill:rgb(255, 255, 255);transform:matrix(1, 0, 0, 1, 0, 0);opacity:0.691244;;animation:none"></path>
<path fill="#fff" d="M2220 599.5 L991.9088509573252 599.5 A15 15 0 0 1 991.9088509573252 630.5 L2220 630.5" transform="matrix(1,0,0,1,43.70122528076172,0)" style="fill:rgb(255, 255, 255);transform:matrix(1, 0, 0, 1, 43.7012, 0);;animation:none"></path>
<path fill="#000" d="M1983.7546317585284 599.5 L2017.5092635170568 599.5 A15 15 0 0 1 2017.5092635170568 630.5 L1983.7546317585284 630.5 A15 15 0 0 1 1983.7546317585284 599.5" transform="matrix(1,0,0,1,-1295.5770263671875,0)" opacity="0.184332" style="fill:rgb(0, 0, 0);transform:matrix(1, 0, 0, 1, -1295.58, 0);opacity:0.184332;;animation:none"></path>
<path fill="#fff" d="M2220 629.5 L933.7381848606591 629.5 A15 15 0 0 0 933.7381848606591 660.5 L2220 660.5" transform="matrix(1,0,0,1,-42.74592971801758,0)" style="fill:rgb(255, 255, 255);transform:matrix(1, 0, 0, 1, -42.7459, 0);;animation:none"></path>
<path fill="#fff" d="M1041.7536140355014 629.5 L1060.6289850880864 629.5 A15 15 0 0 1 1060.6289850880864 660.5 L1041.7536140355014 660.5 A15 15 0 0 1 1041.7536140355014 629.5" transform="matrix(1,0,0,1,0,0)" opacity="1" style="fill:rgb(255, 255, 255);transform:matrix(1, 0, 0, 1, 0, 0);;animation:none"></path>
<path fill="#fff" d="M2220 659.5 L977.5405941549786 659.5 A15 15 0 0 1 977.5405941549786 690.5 L2220 690.5" transform="matrix(1,0,0,1,36.953636169433594,0)" style="fill:rgb(255, 255, 255);transform:matrix(1, 0, 0, 1, 36.9536, 0);;animation:none"></path>
<path fill="#000" d="M1977.0119760261116 659.5 L2004.0239520522232 659.5 A15 15 0 0 1 2004.0239520522232 690.5 L1977.0119760261116 690.5 A15 15 0 0 1 1977.0119760261116 659.5" transform="matrix(1,0,0,1,-235.5806427001953,0)" opacity="1" style="fill:rgb(0, 0, 0);transform:matrix(1, 0, 0, 1, -235.581, 0);;animation:none"></path>
<path fill="#fff" d="M2220 689.5 L958.8732575345083 689.5 A15 15 0 0 0 958.8732575345083 720.5 L2220 720.5" transform="matrix(1,0,0,1,-8.635844230651855,0)" style="fill:rgb(255, 255, 255);transform:matrix(1, 0, 0, 1, -8.63584, 0);;animation:none"></path>
<path fill="#fff" d="M1034.8237347332738 689.5 L1074.3606880949364 689.5 A15 15 0 0 1 1074.3606880949364 720.5 L1034.8237347332738 720.5 A15 15 0 0 1 1034.8237347332738 689.5" transform="matrix(1,0,0,1,0,0)" opacity="0.460829" style="fill:rgb(255, 255, 255);transform:matrix(1, 0, 0, 1, 0, 0);opacity:0.460829;;animation:none"></path>
<path fill="#fff" d="M2220 719.5 L986.8225111562275 719.5 A15 15 0 0 1 986.8225111562275 750.5 L2220 750.5" transform="matrix(1,0,0,1,10.2542724609375,0)" style="fill:rgb(255, 255, 255);transform:matrix(1, 0, 0, 1, 10.2543, 0);;animation:none"></path>
<path fill="#000" d="M1983.9370349849264 719.5 L2017.8740699698528 719.5 A15 15 0 0 1 2017.8740699698528 750.5 L1983.9370349849264 750.5 A15 15 0 0 1 1983.9370349849264 719.5" transform="matrix(1,0,0,1,-1530.8948974609375,0)" opacity="0.506913" style="fill:rgb(0, 0, 0);transform:matrix(1, 0, 0, 1, -1530.89, 0);opacity:0.506913;;animation:none"></path>
<path fill="#fff" d="M2220 749.5 L945.3959839049065 749.5 A15 15 0 0 0 945.3959839049065 780.5 L2220 780.5" transform="matrix(1,0,0,1,-1.5222015380859375,0)" style="fill:rgb(255, 255, 255);transform:matrix(1, 0, 0, 1, -1.5222, 0);;animation:none"></path>
<path fill="#fff" d="M1043.8387066322368 749.5 L1061.2079275928088 749.5 A15 15 0 0 1 1061.2079275928088 780.5 L1043.8387066322368 780.5 A15 15 0 0 1 1043.8387066322368 749.5" transform="matrix(1,0,0,1,0,0)" opacity="0.230415" style="fill:rgb(255, 255, 255);transform:matrix(1, 0, 0, 1, 0, 0);opacity:0.230415;;animation:none"></path>
<path fill="#fff" d="M2220 779.5 L979.4753856748526 779.5 A15 15 0 0 1 979.4753856748526 810.5 L2220 810.5" transform="matrix(1,0,0,1,0.41722413897514343,0)" style="fill:rgb(255, 255, 255);transform:matrix(1, 0, 0, 1, 0.417224, 0);;animation:none"></path>
<path fill="#000" d="M1964.2347079730173 779.5 L1978.4694159460346 779.5 A15 15 0 0 1 1978.4694159460346 810.5 L1964.2347079730173 810.5 A15 15 0 0 1 1964.2347079730173 779.5" transform="matrix(1,0,0,1,-1231.6058349609375,0)" opacity="0.64516" style="fill:rgb(0, 0, 0);transform:matrix(1, 0, 0, 1, -1231.61, 0);opacity:0.64516;;animation:none"></path>
<path fill="#fff" d="M2220 809.5 L947.9461032028172 809.5 A15 15 0 0 0 947.9461032028172 840.5 L2220 840.5" transform="matrix(1,0,0,1,-20.788068771362305,0)" style="fill:rgb(255, 255, 255);transform:matrix(1, 0, 0, 1, -20.7881, 0);;animation:none"></path>
<path fill="#fff" d="M1022.0523622417445 809.5 L1038.411344071832 809.5 A15 15 0 0 1 1038.411344071832 840.5 L1022.0523622417445 840.5 A15 15 0 0 1 1022.0523622417445 809.5" transform="matrix(1,0,0,1,0,0)" opacity="0.230414" style="fill:rgb(255, 255, 255);transform:matrix(1, 0, 0, 1, 0, 0);opacity:0.230414;;animation:none"></path>
<path fill="#fff" d="M2220 839.5 L974.3375307232449 839.5 A15 15 0 0 1 974.3375307232449 870.5 L2220 870.5" transform="matrix(1,0,0,1,16.12724494934082,0)" style="fill:rgb(255, 255, 255);transform:matrix(1, 0, 0, 1, 16.1272, 0);;animation:none"></path>
<path fill="#000" d="M1961.7060050956775 839.5 L1973.412010191355 839.5 A15 15 0 0 1 1973.412010191355 870.5 L1961.7060050956775 870.5 A15 15 0 0 1 1961.7060050956775 839.5" transform="matrix(1,0,0,1,-932.5172729492188,0)" opacity="0.829493" style="fill:rgb(0, 0, 0);transform:matrix(1, 0, 0, 1, -932.517, 0);opacity:0.829493;;animation:none"></path>
<path fill="#fff" d="M2220 869.5 L915.8110314113278 869.5 A15 15 0 0 0 915.8110314113278 900.5 L2220 900.5" transform="matrix(1,0,0,1,-2.7947731018066406,0)" style="fill:rgb(255, 255, 255);transform:matrix(1, 0, 0, 1, -2.79477, 0);;animation:none"></path>
<path fill="#fff" d="M1026.8570507389425 869.5 L1061.9795752795474 869.5 A15 15 0 0 1 1061.9795752795474 900.5 L1026.8570507389425 900.5 A15 15 0 0 1 1026.8570507389425 869.5" transform="matrix(1,0,0,1,0,0)" opacity="0.552995" style="fill:rgb(255, 255, 255);transform:matrix(1, 0, 0, 1, 0, 0);opacity:0.552995;;animation:none"></path>
<path fill="#fff" d="M2220 899.5 L965.0229308213076 899.5 A15 15 0 0 1 965.0229308213076 930.5 L2220 930.5" transform="matrix(1,0,0,1,13.810378074645996,0)" style="fill:rgb(255, 255, 255);transform:matrix(1, 0, 0, 1, 13.8104, 0);;animation:none"></path>
<path fill="#000" d="M1969.813584314324 899.5 L1989.6271686286482 899.5 A15 15 0 0 1 1989.6271686286482 930.5 L1969.813584314324 930.5 A15 15 0 0 1 1969.813584314324 899.5" transform="matrix(1,0,0,1,-1444.53662109375,0)" opacity="0.138249" style="fill:rgb(0, 0, 0);transform:matrix(1, 0, 0, 1, -1444.54, 0);opacity:0.138249;;animation:none"></path></g></mask></defs>


<rect mask="url(#ldbk-photon-p7qntxalbyj-mask)" fill="url(#ldbk-photon-p7qntxalbyj-lg)" height="917" width="1920" y="0" x="0" style="fill:url('#ldbk-photon-p7qntxalbyj-lg');;animation:none"></rect>
<g></g></g><!-- [ldio] generated by https://loading.io --></svg>